<svg xmlns:svg="http://www.w3.org/2000/svg" xmlns="http://www.w3.org/2000/svg" version="1.0" width="96px" height="48px" id="svg2">
  <defs id="defs4">
    <clipPath id="clipPath3040">
      <path d="M 0.24994,104.228 L 594.74994,104.228 L 594.74994,736.772 L 0.24994,736.772 L 0.24994,104.228 z" id="path3042"></path>
    </clipPath>
  </defs>
  <g transform="translate(-4.0442705e-2,0)scale(.15)" id="layer1">
    <g transform="matrix(8.5309146,0,0,8.5309146,-1403.5804,-2421.7524)" id="g3900">
      <g transform="translate(1,-0.5)" id="g3900">
        <path d="M 185.22295,291.49647 C 185.26295,291.47897 185.30295,291.46522 185.34545,291.45022 C 186.20545,291.14397 187.1367,290.98022 188.1042,290.98022 C 192.69045,290.98022 196.40795,294.69897 196.40795,299.28272 C 196.40795,302.18022 194.9242,304.72897 192.67795,306.21397 C 192.5917,306.27272 192.5042,306.32522 192.4192,306.37897 C 191.1592,307.14522 189.6842,307.58522 188.1042,307.58522 C 183.5192,307.58522 179.80045,303.86897 179.80045,299.28272 C 179.80045,295.71272 182.05795,292.66772 185.22295,291.49647 z M 215.6017,291.39647 L 203.8767,286.11147 C 203.5042,290.86647 202.6717,295.43647 200.6242,299.50772 C 199.8192,301.25272 198.3242,304.07522 196.51795,305.41897 C 198.17795,303.01522 198.46795,301.03772 198.46795,299.28272 C 198.46795,296.07772 197.0092,293.21022 194.7217,291.31022 C 193.7692,290.51772 192.6717,289.89147 191.4717,289.48147 C 190.41795,289.11772 189.2842,288.91897 188.1042,288.91897 C 186.82295,288.91897 185.59295,289.15397 184.4567,289.57772 C 184.4092,289.60022 184.3592,289.62147 184.3067,289.63897 C 180.4617,291.15772 177.7392,294.90272 177.7392,299.28272 C 177.7392,300.79272 178.0617,302.21647 178.64045,303.51022 C 178.64545,303.52397 178.6492,303.53147 178.65545,303.54647 C 179.1142,304.55897 179.7267,305.48272 180.46795,306.29272 C 176.8242,304.17522 171.0767,300.58397 167.2592,297.98147 C 167.25795,297.97772 167.2567,297.97772 167.2567,297.97772 C 166.69295,297.59522 166.1742,297.23522 165.70545,296.90022 L 165.70545,299.57772 C 168.0542,301.23022 170.45045,302.78022 172.88795,304.23272 C 176.8142,306.51897 180.7267,308.87272 185.1067,310.07022 C 189.1567,311.24272 194.10295,310.97897 197.9592,309.55022 C 198.8992,309.23022 199.81295,308.82397 200.7042,308.35397 C 200.8067,308.30147 200.90795,308.24772 201.0067,308.19522 C 207.4742,304.66272 212.6217,297.65022 215.6017,291.39647" id="path2842" style="fill: rgb(255, 0, 255); fill-opacity: 1; fill-rule: nonzero; stroke: none;"></path>
      </g>
      <path d="M 185.22295,291.49647 C 185.26295,291.47897 185.30295,291.46522 185.34545,291.45022 C 186.20545,291.14397 187.1367,290.98022 188.1042,290.98022 C 192.69045,290.98022 196.40795,294.69897 196.40795,299.28272 C 196.40795,302.18022 194.9242,304.72897 192.67795,306.21397 C 192.5917,306.27272 192.5042,306.32522 192.4192,306.37897 C 191.1592,307.14522 189.6842,307.58522 188.1042,307.58522 C 183.5192,307.58522 179.80045,303.86897 179.80045,299.28272 C 179.80045,295.71272 182.05795,292.66772 185.22295,291.49647 z M 215.6017,291.39647 L 203.8767,286.11147 C 203.5042,290.86647 202.6717,295.43647 200.6242,299.50772 C 199.8192,301.25272 198.3242,304.07522 196.51795,305.41897 C 198.17795,303.01522 198.46795,301.03772 198.46795,299.28272 C 198.46795,296.07772 197.0092,293.21022 194.7217,291.31022 C 193.7692,290.51772 192.6717,289.89147 191.4717,289.48147 C 190.41795,289.11772 189.2842,288.91897 188.1042,288.91897 C 186.82295,288.91897 185.59295,289.15397 184.4567,289.57772 C 184.4092,289.60022 184.3592,289.62147 184.3067,289.63897 C 180.4617,291.15772 177.7392,294.90272 177.7392,299.28272 C 177.7392,300.79272 178.0617,302.21647 178.64045,303.51022 C 178.64545,303.52397 178.6492,303.53147 178.65545,303.54647 C 179.1142,304.55897 179.7267,305.48272 180.46795,306.29272 C 176.8242,304.17522 171.0767,300.58397 167.2592,297.98147 C 167.25795,297.97772 167.2567,297.97772 167.2567,297.97772 C 166.69295,297.59522 166.1742,297.23522 165.70545,296.90022 L 165.70545,299.57772 C 168.0542,301.23022 170.45045,302.78022 172.88795,304.23272 C 176.8142,306.51897 180.7267,308.87272 185.1067,310.07022 C 189.1567,311.24272 194.10295,310.97897 197.9592,309.55022 C 198.8992,309.23022 199.81295,308.82397 200.7042,308.35397 C 200.8067,308.30147 200.90795,308.24772 201.0067,308.19522 C 207.4742,304.66272 212.6217,297.65022 215.6017,291.39647" id="path2840" style="fill-opacity: 1; fill-rule: nonzero; stroke: none;"></path>
    </g>
  </g>
</svg>
